<?xml version="1.0" encoding="UTF-8" standalone="no"?>
<!-- Created with Inkscape (http://www.inkscape.org/) -->

<svg
   xmlns:dc="http://purl.org/dc/elements/1.1/"
   xmlns:cc="http://creativecommons.org/ns#"
   xmlns:rdf="http://www.w3.org/1999/02/22-rdf-syntax-ns#"
   xmlns:svg="http://www.w3.org/2000/svg"
   xmlns="http://www.w3.org/2000/svg"
   version="1.1"
   width="310.97321"
   height="437.41965"
   id="svg2">
  <defs
     id="defs4" />
  <metadata
     id="metadata7">
    <rdf:RDF>
      <cc:Work
         rdf:about="">
        <dc:format>image/svg+xml</dc:format>
        <dc:type
           rdf:resource="http://purl.org/dc/dcmitype/StillImage" />
        <dc:title></dc:title>
      </cc:Work>
    </rdf:RDF>
  </metadata>
  <g
     transform="translate(-0.941962,-613.30357)"
     id="layer1">
    <g
       transform="translate(94.285713,341.42857)"
       id="g3788">
      <path
         d="M 175.86515,292.34375 -80.271995,483.75 l -5.433362,0 0,17.21875 5.433362,0 256.137145,191.40625 19.1036,-11.46875 -240.804639,-179.9375 231.252839,0 0,-17.21875 -231.252839,0 240.804639,-179.9375 -19.1036,-11.46875 z"
         id="path2991"
         style="font-size:medium;font-style:normal;font-variant:normal;font-weight:normal;font-stretch:normal;text-indent:0;text-align:start;text-decoration:none;line-height:normal;letter-spacing:normal;word-spacing:normal;text-transform:none;direction:ltr;block-progression:tb;writing-mode:lr-tb;text-anchor:start;baseline-shift:baseline;color:#000000;fill:#000000;fill-opacity:1;stroke:none;stroke-width:17.20000076;marker:none;visibility:visible;display:inline;overflow:visible;enable-background:accumulate;font-family:Sans;-inkscape-font-specification:Sans" />
      <path
         d="m 42.857143,491.64789 a 27.857143,29.285715 0 1 1 -55.714286,0 27.857143,29.285715 0 1 1 55.714286,0 z"
         transform="translate(174.28571,-190)"
         id="path2999"
         style="fill:#000000;stroke:#000000;stroke-opacity:1" />
      <path
         d="m 42.857143,491.64789 a 27.857143,29.285715 0 1 1 -55.714286,0 27.857143,29.285715 0 1 1 55.714286,0 z"
         transform="translate(-80.000001,6.3854031e-8)"
         id="path2997"
         style="fill:#000000;stroke:#000000;stroke-opacity:1" />
      <path
         d="m 42.857143,491.64789 a 27.857143,29.285715 0 1 1 -55.714286,0 27.857143,29.285715 0 1 1 55.714286,0 z"
         transform="translate(174.28571,6.3854031e-8)"
         id="path3001"
         style="fill:#000000;stroke:#000000;stroke-opacity:1" />
      <path
         d="m 42.857143,491.64789 a 27.857143,29.285715 0 1 1 -55.714286,0 27.857143,29.285715 0 1 1 55.714286,0 z"
         transform="translate(174.28571,187.85714)"
         id="path3003"
         style="fill:#000000;stroke:#000000;stroke-opacity:1" />
    </g>
  </g>
</svg>
